<svg xmlns="http://www.w3.org/2000/svg" viewBox="0 0 128 128">
  <rect width="128" height="128" fill="#09090B"/>
  
  <!-- Glowing background heart -->
  <path d="M64,104 C64,104 24,72 24,44 C24,28 36,16 52,16 C60,16 64,24 64,24 C64,24 68,16 76,16 C92,16 104,28 104,44 C104,72 64,104 64,104 Z" 
        fill="url(#grad)" filter="blur(6px)"/>
        
  <!-- Sharp core heart -->
  <path d="M64,96 C64,96 32,68 32,44 C32,32 40,24 52,24 C58,24 64,32 64,32 C64,32 70,24 76,24 C88,24 96,32 96,44 C96,68 64,96 64,96 Z" 
        fill="#FF6B00"/>

  <defs>
    <radialGradient id="grad" cx="50%" cy="50%" r="50%">
      <stop offset="0%" stop-color="#FF6B00" stop-opacity="1"/>
      <stop offset="100%" stop-color="#FF6B00" stop-opacity="0"/>
    </radialGradient>
  </defs>
</svg>